<?xml version="1.0" encoding="iso-8859-1"?>
<!-- Generator: Adobe Illustrator 19.0.0, SVG Export Plug-In . SVG Version: 6.00 Build 0)  -->
<svg version="1.1" id="Capa_1" xmlns="http://www.w3.org/2000/svg" xmlns:xlink="http://www.w3.org/1999/xlink" x="0px" y="0px"
	 viewBox="0 0 385.36 385.36" style="enable-background:new 0 0 385.36 385.36;" xml:space="preserve">
<path style="fill:#E1EFDA;" d="M61.04,38h263.28c23.218,0,42.04,18.822,42.04,42.04v263.28c0,23.218-18.822,42.04-42.04,42.04H61.04
	c-23.218,0-42.04-18.822-42.04-42.04V80.04C19,56.822,37.822,38,61.04,38z"/>
<g>
	<path style="fill:#F16730;" d="M19,116.68h347.36V80.04c-0.066-23.191-18.849-41.974-42.04-42.04H61.04
		C37.849,38.066,19.066,56.849,19,80.04L19,116.68z"/>
	<path style="fill:#C96528;" d="M287.32,0c10.352,0.022,18.738,8.408,18.76,18.76V52c0.478,10.35-7.524,19.128-17.874,19.606
		c-10.35,0.478-19.128-7.524-19.606-17.874c-0.027-0.577-0.027-1.155,0-1.732V18.76C268.622,8.424,276.984,0.044,287.32,0z M98.08,0
		c10.289,0.109,18.579,8.47,18.6,18.76V52c0.478,10.35-7.524,19.128-17.874,19.606c-10.35,0.478-19.128-7.524-19.606-17.874
		c-0.027-0.577-0.027-1.155,0-1.732V18.76C79.222,8.377,87.657-0.022,98.04,0c0,0,0,0,0,0H98.08z"/>
	<path style="fill:#F16730;" d="M172.16,173.56c2.808-11.344,14.281-18.264,25.625-15.455c7.62,1.886,13.569,7.836,15.455,15.455
		c8.208-8.318,21.606-8.407,29.924-0.199c5.475,5.403,7.587,13.351,5.516,20.759c11.237-3.211,22.949,3.295,26.16,14.532
		c2.147,7.513-0.021,15.598-5.64,21.028c11.344,2.808,18.264,14.281,15.455,25.625c-1.886,7.62-7.836,13.569-15.455,15.455
		c8.403,8.122,8.63,21.518,0.508,29.92c-5.431,5.618-13.515,7.786-21.028,5.64c3.211,11.237-3.295,22.949-14.532,26.16
		c-7.513,2.147-15.598-0.021-21.028-5.64c-2.808,11.344-14.281,18.264-25.625,15.455c-7.62-1.886-13.569-7.836-15.455-15.455
		c-8.278,8.249-21.676,8.225-29.925-0.053c-5.341-5.36-7.413-13.163-5.435-20.467c-11.237,3.211-22.949-3.295-26.16-14.532
		c-2.147-7.513,0.021-15.598,5.64-21.028c-11.344-2.808-18.264-14.281-15.455-25.625c1.886-7.62,7.836-13.569,15.455-15.455
		c-8.403-8.122-8.63-21.518-0.508-29.92c5.431-5.618,13.515-7.786,21.028-5.64c-3.211-11.237,3.295-22.949,14.532-26.16
		c7.513-2.147,15.598,0.021,21.028,5.64L172.16,173.56z"/>
</g>
<circle style="fill:#FFED00;" cx="192.68" cy="250.2" r="37.08"/>
<g>
</g>
<g>
</g>
<g>
</g>
<g>
</g>
<g>
</g>
<g>
</g>
<g>
</g>
<g>
</g>
<g>
</g>
<g>
</g>
<g>
</g>
<g>
</g>
<g>
</g>
<g>
</g>
<g>
</g>
</svg>
