<?xml version="1.0" encoding="iso-8859-1"?>
<!-- Generator: Adobe Illustrator 19.0.0, SVG Export Plug-In . SVG Version: 6.00 Build 0)  -->
<svg version="1.1" id="Capa_1" xmlns="http://www.w3.org/2000/svg" xmlns:xlink="http://www.w3.org/1999/xlink" x="0px" y="0px"
	 viewBox="0 0 464 464" style="enable-background:new 0 0 464 464;" xml:space="preserve">
<path style="fill:#CCCCCC;" d="M448,440V120c0-13.255-10.745-24-24-24H40c-13.255,0-24,10.745-24,24v320H448z"/>
<path style="fill:#999999;" d="M464,416v24c0,13.255-10.745,24-24,24l0,0H24c-13.255,0-24-10.745-24-24l0,0v-24h160l16,16h112l16-16
	H464z"/>
<path style="fill:#29ABE2;" d="M48,128h368v240H48V128z"/>
<path style="fill:#F2F2F2;" d="M224,392h16v16h-16V392z"/>
<circle style="fill:#0071BC;" cx="232" cy="112" r="112"/>
<circle style="fill:#F7931E;" cx="232" cy="72" r="32"/>
<path style="fill:#FBB03B;" d="M256,104h-48c-22.091,0-40,17.909-40,40v59.84c38.433,26.881,89.567,26.881,128,0V144
	C296,121.909,278.091,104,256,104z"/>
<g>
	<path style="fill:#F7931E;" d="M192,152v64.536c5.205,2,10.554,3.604,16,4.8V152L192,152z"/>
	<path style="fill:#F7931E;" d="M256,152v69.344c5.446-1.196,10.795-2.8,16-4.8V152H256z"/>
</g>
<path style="fill:#FBB03B;" d="M104,256h256v64H104V256z"/>
<g>
	<path style="fill:#F15A24;" d="M224,280h16v16h-16V280z"/>
	<path style="fill:#F15A24;" d="M256,280h16v16h-16V280z"/>
	<path style="fill:#F15A24;" d="M288,280h16v16h-16V280z"/>
	<path style="fill:#F15A24;" d="M320,280h16v16h-16V280z"/>
	<path style="fill:#F15A24;" d="M128,280h16v16h-16V280z"/>
	<path style="fill:#F15A24;" d="M160,280h16v16h-16V280z"/>
	<path style="fill:#F15A24;" d="M192,280h16v16h-16V280z"/>
</g>
<g>
</g>
<g>
</g>
<g>
</g>
<g>
</g>
<g>
</g>
<g>
</g>
<g>
</g>
<g>
</g>
<g>
</g>
<g>
</g>
<g>
</g>
<g>
</g>
<g>
</g>
<g>
</g>
<g>
</g>
</svg>
